<svg width="180" height="180" viewBox="0 0 180 180" fill="none" xmlns="http://www.w3.org/2000/svg">
<rect width="180" height="180" fill="#B3C7AA"/>
<path d="M121.242 50.8914L89.0861 31.6822C88.1738 31.1367 87.0333 31.1367 86.121 31.6822L53.9701 50.8914C53.0924 51.417 52.562 52.3591 52.562 53.3756V102.237H122.65V53.3756C122.65 52.3591 122.115 51.417 121.242 50.8914ZM79.4964 100.967H67.4176V67.7899H79.4964V100.967ZM107.79 100.967H95.7157V67.7899H107.79V100.967Z" fill="#B3C7AA"/>
<path d="M121.889 49.8005L89.7386 30.5913C88.4196 29.8029 86.7833 29.8029 85.4643 30.5913L53.3136 49.8005C52.064 50.5492 51.2855 51.9177 51.2855 53.3755V103.511H123.922V53.3755C123.922 51.9177 123.144 50.5492 121.889 49.8005ZM53.8291 53.3755C53.8291 52.8103 54.1317 52.2748 54.6176 51.9822L86.7685 32.773C87.2792 32.4656 87.9188 32.4656 88.4295 32.773L120.58 51.9822C121.066 52.2748 121.369 52.8053 121.369 53.3755V100.962H110.326V65.2412H64.8667V100.962H53.8243V53.3755H53.8291ZM107.787 100.967H95.7136V67.7899H107.787V100.967ZM79.4943 100.967H67.4155V67.7899H79.4943V100.967Z" fill="#32691A"/>
<path d="M107.785 67.7899H95.7113V100.967H107.785V67.7899Z" fill="#7A9D6A"/>
<path d="M79.501 67.7899H67.4222V100.967H79.501V67.7899Z" fill="#7A9D6A"/>
<path d="M107.815 56.668C106.08 54.2383 102.227 54.6052 97.8985 56.4796C94.1995 51.6797 87.0196 46.6122 83.266 50.2219C79.7058 53.6433 81.4512 62.1868 83.4247 67.1751C80.1372 70.9336 78.4067 74.6822 80.0479 76.9978C85.1353 84.1678 113.8 65.0478 107.815 56.668ZM106.72 61.8248C103.804 68.2114 91.8392 76.5813 84.6445 77.2656C82.8743 77.4342 81.6793 77.097 81.0893 76.2639C79.9885 74.7169 81.2231 71.6327 84.3866 68.018L84.8973 67.4328L84.8676 67.3635C88.7749 62.1967 95.1663 59.053 97.4919 58.0316L97.5018 58.0415L98.4092 57.6448C100.373 56.7919 105.113 55.0664 106.784 57.4068C107.568 58.5125 107.548 60.0001 106.72 61.8248Z" fill="#F9A262"/>
<path d="M108.855 55.9292C107.001 53.3359 103.272 52.9938 98.2984 54.9425C95.4423 51.5459 90.9052 48.0403 86.9632 47.7477C85.1682 47.6138 83.5865 48.1543 82.3915 49.3047C78.3652 53.1773 80.1254 61.8745 81.9749 66.9222C78.266 71.37 77.2148 75.1929 79.0197 77.7317C79.7288 78.7283 81.1271 79.844 83.8443 79.844C84.1716 79.844 84.5237 79.8242 84.8906 79.7895C88.6095 79.4374 93.7415 77.216 98.6157 73.8443C103.649 70.3634 107.447 66.3668 109.043 62.8711C110.576 59.4993 109.787 57.2333 108.855 55.9292ZM84.6427 77.2607C82.8725 77.4292 81.6775 77.0921 81.0875 76.259C79.9867 74.712 81.2213 71.6278 84.3848 68.0131L84.8956 67.428L84.8707 67.3586C88.778 62.1918 95.1695 59.0481 97.495 58.0267L97.505 58.0366L98.4124 57.6399C100.376 56.787 105.116 55.0664 106.787 57.4019C107.576 58.5076 107.556 59.9952 106.728 61.8199C103.807 68.2114 91.8424 76.5764 84.6427 77.2607ZM86.7699 50.2865C89.6508 50.4997 93.2754 53.1426 95.834 55.9887C93.1664 57.2283 87.7714 60.0993 83.8592 64.5719C82.4014 59.901 81.5486 53.6433 84.1518 51.1393C84.7567 50.5592 85.5055 50.2716 86.4179 50.2716C86.5319 50.2716 86.6509 50.2765 86.7699 50.2865Z" fill="#32691A"/>
<path d="M106.721 61.8248C103.806 68.2114 91.841 76.5813 84.6462 77.2656C82.8761 77.4342 81.6811 77.097 81.091 76.264C79.9903 74.7169 81.2249 71.6327 84.3884 68.018L84.8991 67.4329L84.8693 67.3635C88.7766 62.1968 95.1681 59.053 97.4936 58.0316L97.5036 58.0415L98.411 57.6448C100.375 56.7919 105.115 55.0664 106.786 57.4068C107.569 58.5126 107.55 60.0001 106.721 61.8248Z" fill="#9C5A40"/>
<path d="M102.756 62.1422C131.515 62.1422 143.981 133.678 86.5815 133.678C34.0116 133.678 37.1008 77.8705 85.8527 91.1245C85.8527 91.1245 78.7174 62.1422 102.756 62.1422Z" fill="#FFD066"/>
<path d="M124.919 100.451C117.65 88.4172 76.0784 122.571 93.086 130.302C110.094 138.027 129.804 108.539 124.919 100.451Z" fill="#F9A262"/>
<path d="M132.344 81.3414C132.18 80.8158 132.026 80.315 125.729 77.2953C131.04 71.2757 130.945 70.7699 130.826 70.1402C130.757 69.7683 130.534 69.4361 130.202 69.2477C129.587 68.9006 129.121 69.0493 127.708 69.6493C126.805 70.0311 125.729 70.5369 124.683 71.0674C123.746 71.5385 122.66 72.1236 121.589 72.7632C121.465 72.5698 121.341 72.3765 121.212 72.1831C116.358 64.8892 109.808 60.8678 102.757 60.8678C96.132 60.8678 91.1189 62.9801 87.8513 67.1502C82.3622 74.1566 83.4431 84.9165 84.2067 89.3841C76.9326 87.6337 70.3577 87.3412 64.6356 88.5064C59.0276 89.6518 54.4112 92.2253 51.2775 95.9392C48.9172 98.7408 47.4545 102.137 47.0528 105.767C46.6561 109.367 47.3057 113.125 48.9371 116.631C51.3766 121.882 55.8293 126.335 61.8093 129.518C66.2223 131.863 71.3048 133.46 76.9873 134.283C77.0071 137.412 79.6946 142.579 83.3193 146.451H62.0572C61.3531 146.451 60.7828 147.022 60.7828 147.726C60.7828 148.43 61.3531 149 62.0572 149H113.125C113.829 149 114.399 148.43 114.399 147.726C114.399 147.022 113.829 146.451 113.125 146.451H107.036C105.31 144.374 102.276 139.926 101.487 138.815C99.8608 136.52 100.917 133.316 103.585 132.429C104.313 132.186 105.028 131.928 105.727 131.65C110.844 129.632 115.212 126.697 118.708 122.918C124.866 116.269 128.258 106.972 128.258 96.7425C128.258 92.0171 127.529 87.2619 126.166 82.8389C127.227 83.0025 128.248 83.1265 129.126 83.181C129.473 83.2008 129.79 83.2157 130.083 83.2157C131.164 83.2157 131.848 83.0224 132.215 82.3976C132.413 82.0852 132.458 81.6984 132.344 81.3414ZM103.808 146.456H87.0877C85.8679 145.207 84.2018 142.822 83.3886 141.909C80.9739 139.207 82.8978 134.943 86.5224 134.948C86.5472 134.948 86.572 134.948 86.5968 134.948C90.1322 134.948 93.4941 134.68 96.6576 134.144C95.9733 138.2 100.178 142.851 103.808 146.456ZM116.853 121.193C112.326 126.077 106.381 129.384 99.0971 131.07C98.2442 131.268 97.3765 131.447 96.484 131.601C93.4048 132.136 90.1024 132.404 86.5868 132.404C84.4299 132.404 82.3375 132.305 80.3194 132.111C79.3673 132.022 78.4301 131.908 77.5078 131.774C64.7843 129.94 55.2591 124.168 51.2576 115.565C48.9965 110.701 48.9172 105.593 50.9105 101.24C51.2328 102.931 51.9568 104.374 53.0775 105.549C55.0906 107.666 57.9516 108.415 60.0689 108.668C58.9185 110.244 57.6888 112.565 57.8375 115.143C57.9863 117.687 59.4044 119.923 62.0622 121.788C63.5844 122.859 65.6025 123.404 67.9677 123.404C68.6123 123.404 69.2867 123.365 69.9858 123.28C72.9262 122.933 76.2186 121.862 79.4962 120.186C84.1373 117.816 88.4067 114.41 91.5058 110.606C95.0957 106.198 97.0294 101.399 97.0939 96.7276C97.1038 96.0235 96.5436 95.4483 95.8395 95.4384C95.8345 95.4384 95.8295 95.4384 95.8196 95.4384C95.1254 95.4384 94.5552 95.9987 94.5452 96.6929C94.4213 105.702 86.3142 113.844 78.336 117.925C72.2321 121.044 66.4207 121.743 63.5249 119.71C61.5415 118.317 60.4854 116.735 60.3813 115.015C60.178 111.603 63.6092 108.479 63.6389 108.45C64.0455 108.088 64.1745 107.502 63.9613 107.002C63.7481 106.501 63.2373 106.188 62.6919 106.233C62.6423 106.238 57.5698 106.6 54.917 103.798C54.5154 103.372 54.1832 102.891 53.9253 102.351C52.77 99.9159 53.4988 96.9954 55.5864 95.2946C59.5928 92.0369 65.1662 90.3658 71.8204 90.3658C76.0054 90.3658 80.6119 91.0253 85.5307 92.3641C86.4679 92.617 87.3306 91.7741 87.1026 90.832C87.0678 90.6882 83.706 76.5912 89.8694 68.7271C92.6263 65.2115 96.97 63.4264 102.766 63.4264C109.674 63.4264 115.44 67.7849 119.467 74.1665C118.941 74.5483 118.46 74.935 118.043 75.3218C116.591 76.6755 116.105 77.9498 116.591 79.1002C116.923 79.8935 117.855 80.9398 122.115 82.0257C122.501 82.1249 122.903 82.219 123.314 82.3083C124.881 86.885 125.729 91.8732 125.729 96.7524C125.724 106.337 122.576 115.019 116.853 121.193Z" fill="#32691A"/>
<path d="M106.333 73.8046C103.472 73.8046 101.142 76.135 101.142 78.9961C101.142 81.8571 103.472 77.9994 106.333 77.9994C109.194 77.9994 111.525 81.8571 111.525 78.9961C111.525 76.135 109.199 73.8046 106.333 73.8046Z" fill="#32691A"/>
</svg>
