<svg width="500" height="500" viewBox="0 0 500 500" fill="none" xmlns="http://www.w3.org/2000/svg">
<path d="M369.8 102.528L247.391 29.4036C243.918 27.3273 239.577 27.3273 236.104 29.4036L113.714 102.528C110.373 104.528 108.354 108.115 108.354 111.984V297.984H375.16V111.984C375.16 108.115 373.122 104.528 369.8 102.528ZM210.886 293.152H164.905V166.856H210.886V293.152ZM318.59 293.152H272.628V166.856H318.59V293.152Z" fill="#B3C7AA"/>
<path d="M372.264 98.375L249.875 25.2509C244.854 22.2497 238.625 22.2497 233.604 25.2509L111.215 98.375C106.458 101.225 103.495 106.435 103.495 111.984V302.835H380.003V111.984C380.003 106.435 377.039 101.225 372.264 98.375ZM113.177 111.984C113.177 109.832 114.329 107.794 116.179 106.68L238.568 33.5562C240.513 32.3859 242.947 32.3859 244.891 33.5562L367.281 106.68C369.131 107.794 370.282 109.813 370.282 111.984V293.133H328.246V157.154H155.195V293.133H113.159V111.984H113.177ZM318.582 293.152H272.62V166.856H318.582V293.152ZM210.878 293.152H164.897V166.856H210.878V293.152Z" fill="#32691A"/>
<path d="M318.573 166.856H272.611V293.152H318.573V166.856Z" fill="#7A9D6A"/>
<path d="M210.903 166.856H164.923V293.152H210.903V166.856Z" fill="#7A9D6A"/>
<path d="M318.688 124.518C312.082 115.269 297.416 116.665 280.937 123.8C266.856 105.529 239.524 86.2379 225.235 99.9793C211.683 113.003 218.327 145.526 225.839 164.515C213.325 178.823 206.737 193.093 212.985 201.908C232.351 229.202 341.471 156.417 318.688 124.518ZM314.517 144.148C303.418 168.46 257.871 200.322 230.483 202.927C223.744 203.569 219.195 202.285 216.949 199.114C212.759 193.225 217.459 181.484 229.501 167.724L231.445 165.496L231.332 165.232C246.206 145.564 270.537 133.597 279.389 129.708L279.427 129.746L282.881 128.236C290.356 124.989 308.401 118.421 314.762 127.33C317.744 131.539 317.669 137.202 314.517 144.148Z" fill="#F9A262"/>
<path d="M322.646 121.705C315.586 111.833 301.392 110.531 282.46 117.949C271.587 105.019 254.316 91.6742 239.31 90.5606C232.477 90.0509 226.455 92.1084 221.906 96.4875C206.579 111.229 213.28 144.337 220.321 163.553C206.202 180.484 202.2 195.037 209.071 204.701C211.77 208.495 217.093 212.742 227.437 212.742C228.683 212.742 230.023 212.667 231.42 212.535C245.577 211.194 265.113 202.738 283.667 189.903C302.826 176.652 317.285 161.438 323.363 148.131C329.195 135.296 326.194 126.67 322.646 121.705ZM230.476 202.908C223.737 203.55 219.189 202.266 216.942 199.095C212.752 193.206 217.452 181.465 229.494 167.705L231.439 165.478L231.344 165.214C246.218 145.545 270.549 133.578 279.401 129.69L279.439 129.727L282.894 128.217C290.368 124.971 308.413 118.421 314.774 127.311C317.776 131.521 317.7 137.183 314.548 144.13C303.43 168.46 257.883 200.303 230.476 202.908ZM238.574 100.225C249.54 101.037 263.339 111.097 273.078 121.932C262.923 126.651 242.386 137.58 227.494 154.606C221.944 136.825 218.698 113.004 228.607 103.471C230.91 101.263 233.761 100.168 237.234 100.168C237.668 100.168 238.121 100.187 238.574 100.225Z" fill="#32691A"/>
<path d="M314.524 144.148C303.425 168.46 257.878 200.322 230.49 202.927C223.751 203.569 219.202 202.285 216.956 199.114C212.766 193.225 217.466 181.484 229.508 167.724L231.452 165.496L231.339 165.232C246.213 145.564 270.544 133.597 279.396 129.708L279.434 129.746L282.888 128.236C290.363 124.989 308.408 118.421 314.769 127.33C317.751 131.539 317.676 137.202 314.524 144.148Z" fill="#9C5A40"/>
<path d="M299.429 145.356C408.908 145.356 456.361 417.675 237.857 417.675C37.7377 417.675 49.4973 205.23 235.082 255.684C235.082 255.684 207.92 145.356 299.429 145.356Z" fill="#FFD066"/>
<path d="M383.799 291.189C356.127 245.378 197.874 375.393 262.617 404.82C327.361 434.228 402.391 321.975 383.799 291.189Z" fill="#F9A262"/>
<path d="M412.061 218.443C411.438 216.442 410.853 214.535 386.881 203.04C407.097 180.125 406.738 178.2 406.285 175.803C406.021 174.387 405.171 173.122 403.907 172.405C401.566 171.084 399.792 171.65 394.413 173.934C390.977 175.387 386.881 177.313 382.898 179.332C379.331 181.126 375.197 183.353 371.12 185.788C370.648 185.052 370.176 184.316 369.685 183.579C351.206 155.813 326.272 140.505 299.43 140.505C274.213 140.505 255.129 148.546 242.69 164.421C221.795 191.092 225.91 232.052 228.817 249.059C201.126 242.396 176.097 241.282 154.315 245.718C132.966 250.078 115.393 259.875 103.464 274.012C94.4791 284.677 88.9108 297.607 87.3819 311.424C85.8718 325.127 88.3446 339.435 94.5547 352.78C103.841 372.77 120.792 389.72 143.556 401.838C160.355 410.766 179.703 416.844 201.334 419.977C201.41 431.888 211.64 451.556 225.438 466.298H144.499C141.819 466.298 139.648 468.469 139.648 471.149C139.648 473.829 141.819 476 144.499 476H338.899C341.58 476 343.75 473.829 343.75 471.149C343.75 468.469 341.58 466.298 338.899 466.298H315.72C309.151 458.389 297.599 441.458 294.598 437.23C288.407 428.49 292.427 416.297 302.583 412.918C305.357 411.993 308.075 411.011 310.737 409.954C330.217 402.272 346.846 391.098 360.153 376.714C383.597 351.402 396.508 316.011 396.508 277.07C396.508 259.082 393.733 240.98 388.542 224.143C392.581 224.766 396.47 225.238 399.811 225.445C401.132 225.521 402.34 225.578 403.454 225.578C407.569 225.578 410.173 224.841 411.57 222.463C412.325 221.274 412.495 219.802 412.061 218.443ZM303.432 466.317H239.783C235.14 461.56 228.798 452.481 225.702 449.008C216.51 438.721 223.834 422.488 237.632 422.507C237.726 422.507 237.82 422.507 237.915 422.507C251.373 422.507 264.171 421.487 276.213 419.449C273.609 434.889 289.615 452.594 303.432 466.317ZM353.094 370.146C335.86 388.738 313.228 401.328 285.5 407.746C282.253 408.501 278.95 409.18 275.553 409.766C263.831 411.804 251.26 412.823 237.877 412.823C229.666 412.823 221.701 412.446 214.018 411.71C210.394 411.37 206.826 410.936 203.316 410.426C154.881 403.442 118.621 381.471 103.388 348.722C94.7811 330.205 94.4792 310.763 102.067 294.19C103.294 300.627 106.05 306.12 110.316 310.593C117.979 318.653 128.87 321.503 136.93 322.466C132.551 328.468 127.87 337.302 128.436 347.118C129.003 356.801 134.401 365.314 144.518 372.411C150.313 376.488 157.995 378.564 166.999 378.564C169.453 378.564 172.02 378.413 174.682 378.092C185.875 376.771 198.408 372.694 210.885 366.314C228.552 357.291 244.805 344.324 256.602 329.846C270.268 313.066 277.629 294.794 277.874 277.014C277.912 274.333 275.779 272.144 273.099 272.106C273.08 272.106 273.061 272.106 273.024 272.106C270.381 272.106 268.21 274.239 268.172 276.881C267.701 311.178 236.839 342.172 206.468 357.707C183.232 369.58 161.11 372.241 150.087 364.502C142.536 359.198 138.516 353.177 138.12 346.627C137.346 333.64 150.407 321.749 150.521 321.636C152.068 320.258 152.56 318.03 151.748 316.124C150.936 314.217 148.992 313.028 146.916 313.198C146.727 313.217 127.417 314.595 117.319 303.93C115.79 302.307 114.525 300.476 113.544 298.418C109.146 289.151 111.92 278.033 119.867 271.559C135.118 259.157 156.334 252.796 181.665 252.796C197.596 252.796 215.132 255.307 233.857 260.403C237.424 261.366 240.708 258.157 239.84 254.571C239.708 254.023 226.91 200.36 250.373 170.423C260.868 157.04 277.403 150.245 299.468 150.245C325.762 150.245 347.714 166.837 363.041 191.13C361.04 192.583 359.209 194.055 357.624 195.528C352.093 200.681 350.243 205.532 352.093 209.911C353.358 212.931 356.907 216.914 373.121 221.047C374.593 221.425 376.122 221.783 377.689 222.123C383.653 239.545 386.881 258.534 386.881 277.108C386.862 313.594 374.876 346.646 353.094 370.146Z" fill="#32691A"/>
<path d="M313.046 189.752C302.155 189.752 293.284 198.623 293.284 209.514C293.284 220.406 302.155 205.72 313.046 205.72C323.938 205.72 332.809 220.406 332.809 209.514C332.809 198.623 323.957 189.752 313.046 189.752Z" fill="#32691A"/>
</svg>
