<svg width="40" height="40" viewBox="0 0 40 40" fill="none" xmlns="http://www.w3.org/2000/svg">
<path d="M12.0708 4.2854V9.57523C11.4058 9.73523 10.7758 10.0752 10.1808 10.5952C9.8358 10.8952 9.55081 11.2502 9.33581 11.6502H4.00098V10.4052C4.00098 7.02531 6.74089 4.2854 10.1208 4.2854H12.0708Z" fill="#FFD066"/>
<path d="M12.0708 20.31V34.8546H10.1208C6.74089 34.8546 4.00098 32.1146 4.00098 28.7347V19.02H10.8608C11.2208 19.48 11.6308 19.915 12.0708 20.31Z" fill="#FFD066"/>
<path d="M36.0002 10.4052V11.6502H22.5906C22.3756 11.2502 22.0906 10.8902 21.7456 10.5902C21.0306 9.97023 20.2506 9.60022 19.4307 9.49524V4.2854H29.8854C33.2653 4.2854 36.0002 7.02531 36.0002 10.4052Z" fill="#FFD066"/>
<path d="M36.0002 19.02V28.7347C36.0002 32.1146 33.2653 34.8546 29.8854 34.8546H19.4307V20.675C20.0307 20.185 20.5806 19.625 21.0606 19.02H36.0002Z" fill="#FFD066"/>
<path d="M10.1458 18.02H4.00098V12.6502H8.94584C8.5163 14.4602 9.17326 16.454 10.1458 18.02Z" fill="#FFD066"/>
<path d="M13.0703 4.2854H18.4301V9.48023C17.3952 9.60022 16.5352 10.1002 15.9602 10.5352C15.3102 10.0402 14.2953 9.47025 13.0703 9.45524V4.2854Z" fill="#FFD066"/>
<path d="M17.5152 21.9299C17.8302 21.7749 18.1352 21.5999 18.4301 21.4049V34.8545H13.0703V21.1199C13.4953 21.4249 13.9403 21.6949 14.4003 21.9249C15.3622 22.4159 16.527 22.4189 17.5152 21.9299Z" fill="#FFD066"/>
<path d="M36.0001 12.6502V18.02H21.7705C22.7464 16.4557 23.4038 14.4283 22.9705 12.6502H36.0001Z" fill="#FFD066"/>
<path d="M17.0694 21.0335C16.3668 21.3832 15.5483 21.3832 14.8459 21.0328C10.6432 18.9369 8.35972 13.4998 10.835 11.3478C12.952 9.5131 14.9791 10.9722 15.69 11.6118C15.8436 11.7501 16.0712 11.7503 16.2251 11.6122C16.9378 10.9729 18.9715 9.51266 21.0889 11.3478C23.556 13.5 21.2789 18.938 17.0694 21.0335Z" fill="#E94C4D"/>
</svg>
