<svg width="30" height="30" viewBox="0 0 30 30" fill="none" xmlns="http://www.w3.org/2000/svg">
<rect width="30" height="30" rx="8" fill="#FFF2D3"/>
<path d="M17.5001 6.66663V15C17.5001 15.9166 16.7501 16.6666 15.8334 16.6666H6.66675V9.99996C6.66675 8.15829 8.15841 6.66663 10.0001 6.66663H17.5001Z" fill="#ECB436"/>
<path d="M23.3334 16.6666V19.1666C23.3334 20.55 22.2167 21.6666 20.8334 21.6666H20.0001C20.0001 20.75 19.2501 20 18.3334 20C17.4167 20 16.6667 20.75 16.6667 21.6666H13.3334C13.3334 20.75 12.5834 20 11.6667 20C10.7501 20 10.0001 20.75 10.0001 21.6666H9.16675C7.78341 21.6666 6.66675 20.55 6.66675 19.1666V16.6666H15.8334C16.7501 16.6666 17.5001 15.9166 17.5001 15V9.16663H19.0334C19.6334 9.16663 20.1834 9.49163 20.4834 10.0083L21.9084 12.5H20.8334C20.3751 12.5 20.0001 12.875 20.0001 13.3333V15.8333C20.0001 16.2916 20.3751 16.6666 20.8334 16.6666H23.3334Z" fill="#FFD066"/>
<path d="M11.6667 23.3333C12.5871 23.3333 13.3333 22.5871 13.3333 21.6667C13.3333 20.7462 12.5871 20 11.6667 20C10.7462 20 10 20.7462 10 21.6667C10 22.5871 10.7462 23.3333 11.6667 23.3333Z" fill="#ECB436"/>
<path d="M18.3334 23.3333C19.2539 23.3333 20.0001 22.5871 20.0001 21.6667C20.0001 20.7462 19.2539 20 18.3334 20C17.4129 20 16.6667 20.7462 16.6667 21.6667C16.6667 22.5871 17.4129 23.3333 18.3334 23.3333Z" fill="#ECB436"/>
</svg>
