<svg width="30" height="30" viewBox="0 0 30 30" fill="none" xmlns="http://www.w3.org/2000/svg">
<rect width="30" height="30" rx="8" fill="#D1F1E8"/>
<path d="M11.4898 10.2083C10.5804 10.2079 9.95597 10.2076 9.42242 10.4082C8.71358 10.6746 8.12561 11.1894 7.76781 11.8568C7.49849 12.3592 7.41624 12.9781 7.29646 13.8796L6.60995 19.0287C6.5259 19.659 6.45841 20.1652 6.43321 20.5775C6.40742 20.9995 6.42147 21.376 6.53043 21.7368C6.79085 22.5991 7.41074 23.3071 8.2311 23.6792C8.57434 23.8349 8.94566 23.8986 9.36737 23.9288C9.77935 23.9583 10.29 23.9583 10.9259 23.9583H19.0738C19.7097 23.9583 20.2204 23.9583 20.6324 23.9288C21.0541 23.8986 21.4254 23.8349 21.7686 23.6792C22.589 23.3071 23.2089 22.5991 23.4693 21.7368C23.5783 21.376 23.5923 20.9995 23.5665 20.5775C23.5413 20.1652 23.4738 19.659 23.3898 19.0287L22.7033 13.8796C22.5835 12.9781 22.5012 12.3592 22.2319 11.8568C21.8741 11.1894 21.2862 10.6746 20.5773 10.4082C20.0438 10.2076 19.4194 10.2079 18.5099 10.2083H11.4898Z" fill="#11936C"/>
<path fill-rule="evenodd" clip-rule="evenodd" d="M14.9036 6.87502C14.9353 6.87503 14.9675 6.87504 15.0001 6.87504C15.0328 6.87504 15.0649 6.87503 15.0966 6.87502C15.7783 6.8748 16.2434 6.87464 16.6423 6.98152C17.7207 7.27048 18.563 8.11282 18.852 9.19123C18.9589 9.59012 18.9587 10.0552 18.9585 10.7369C18.9585 10.7686 18.9585 10.8007 18.9585 10.8334V13.3334C18.9585 13.6786 18.6786 13.9584 18.3335 13.9584C17.9883 13.9584 17.7085 13.6786 17.7085 13.3334V10.8334C17.7085 10.0182 17.7031 9.73316 17.6446 9.51476C17.4712 8.86771 16.9658 8.36231 16.3187 8.18893C16.1003 8.13041 15.8153 8.12504 15.0001 8.12504C14.1849 8.12504 13.8999 8.13041 13.6815 8.18893C13.0345 8.36231 12.5291 8.86771 12.3557 9.51476C12.2972 9.73316 12.2918 10.0182 12.2918 10.8334V13.3334C12.2918 13.6786 12.012 13.9584 11.6668 13.9584C11.3216 13.9584 11.0418 13.6786 11.0418 13.3334V10.8334C11.0418 10.8007 11.0418 10.7686 11.0418 10.7369C11.0415 10.0552 11.0414 9.59012 11.1483 9.19123C11.4372 8.11282 12.2796 7.27048 13.358 6.98152C13.7569 6.87464 14.222 6.8748 14.9036 6.87502Z" fill="#92D7C1"/>
<path d="M12 18.25C12.4142 18.25 12.75 17.9142 12.75 17.5C12.75 17.0858 12.4142 16.75 12 16.75V18.25ZM4 18.25H12V16.75H4V18.25Z" fill="#D1F1E7"/>
<path d="M9 21.25C9.41421 21.25 9.75 20.9142 9.75 20.5C9.75 20.0858 9.41421 19.75 9 19.75V21.25ZM1 21.25H9V19.75H1V21.25Z" fill="#D1F1E7"/>
</svg>
