<svg width="30" height="30" viewBox="0 0 30 30" fill="none" xmlns="http://www.w3.org/2000/svg">
<rect width="30" height="30" rx="8" fill="#FFF2D3"/>
<path d="M10.9343 7.47288L14.1924 6.10667C14.4457 6.00128 14.7173 5.94702 14.9917 5.94702C15.266 5.94702 15.5377 6.00128 15.791 6.10667L22.5482 8.94118C22.8956 9.08647 23.1962 9.32471 23.417 9.62972L19.6898 11.1914C19.6408 11.1374 19.5808 11.0944 19.5139 11.0654L10.9343 7.47288ZM14.9917 13.1615L18.3475 11.754L9.52898 8.06151L7.43513 8.93033C7.08774 9.07561 6.78712 9.31385 6.56631 9.61886L14.9917 13.1615ZM14.4487 14.1041L6.19489 10.6289C6.19489 10.6962 6.17969 10.7614 6.17969 10.8287V19.1759C6.17905 19.5824 6.29875 19.98 6.52371 20.3186C6.74867 20.6572 7.06882 20.9216 7.44382 21.0786L14.1924 23.9153C14.276 23.9487 14.3616 23.977 14.4487 24V14.1041ZM19.8484 12.3013V16.5933C19.8484 16.7373 19.7912 16.8754 19.6893 16.9773C19.5875 17.0791 19.4494 17.1363 19.3054 17.1363C19.1613 17.1363 19.0232 17.0791 18.9214 16.9773C18.8196 16.8754 18.7623 16.7373 18.7623 16.5933V12.7575L15.5347 14.1041V24C15.6218 23.977 15.7074 23.9487 15.791 23.9153L22.5482 21.0786C22.9232 20.9216 23.2434 20.6572 23.4683 20.3186C23.6933 19.98 23.813 19.5824 23.8123 19.1759V10.8461C23.8123 10.7787 23.8123 10.7136 23.7971 10.6462L19.8484 12.3013Z" fill="#ECB436"/>
</svg>
