<svg width="30" height="30" viewBox="0 0 30 30" fill="none" xmlns="http://www.w3.org/2000/svg">
<rect width="30" height="30" rx="8" fill="#D1F1E8"/>
<path d="M11.4896 10.2083C10.5801 10.2079 9.95573 10.2076 9.42217 10.4082C8.71334 10.6746 8.12537 11.1894 7.76757 11.8568C7.49824 12.3592 7.416 12.9781 7.29621 13.8796L6.60971 19.0287C6.52566 19.659 6.45816 20.1652 6.43297 20.5775C6.40718 20.9995 6.42122 21.376 6.53018 21.7368C6.79061 22.5991 7.41049 23.3071 8.23086 23.6792C8.5741 23.8349 8.94542 23.8986 9.36712 23.9288C9.7791 23.9583 10.2898 23.9583 10.9257 23.9583H19.0735C19.7095 23.9583 20.2201 23.9583 20.6321 23.9288C21.0538 23.8986 21.4251 23.8349 21.7684 23.6792C22.5887 23.3071 23.2086 22.5991 23.4691 21.7368C23.578 21.376 23.5921 20.9995 23.5663 20.5775C23.5411 20.1652 23.4736 19.659 23.3895 19.0287L22.703 13.8796C22.5832 12.9781 22.501 12.3592 22.2317 11.8568C21.8739 11.1894 21.2859 10.6746 20.5771 10.4082C20.0435 10.2076 19.4191 10.2079 18.5097 10.2083H11.4896Z" fill="#11936C"/>
<path fill-rule="evenodd" clip-rule="evenodd" d="M14.9039 6.87496C14.9356 6.87497 14.9677 6.87498 15.0004 6.87498C15.033 6.87498 15.0652 6.87497 15.0969 6.87496C15.7785 6.87473 16.2436 6.87458 16.6425 6.98146C17.7209 7.27042 18.5633 8.11276 18.8522 9.19117C18.9591 9.59005 18.9589 10.0552 18.9587 10.7368C18.9587 10.7685 18.9587 10.8007 18.9587 10.8333V13.3333C18.9587 13.6785 18.6789 13.9583 18.3337 13.9583C17.9885 13.9583 17.7087 13.6785 17.7087 13.3333V10.8333C17.7087 10.0181 17.7033 9.7331 17.6448 9.51469C17.4714 8.86765 16.966 8.36225 16.319 8.18887C16.1006 8.13035 15.8156 8.12498 15.0004 8.12498C14.1852 8.12498 13.9002 8.13035 13.6817 8.18887C13.0347 8.36225 12.5293 8.86765 12.3559 9.51469C12.2974 9.7331 12.292 10.0181 12.292 10.8333V13.3333C12.292 13.6785 12.0122 13.9583 11.667 13.9583C11.3219 13.9583 11.042 13.6785 11.042 13.3333V10.8333C11.042 10.8007 11.042 10.7685 11.042 10.7368C11.0418 10.0552 11.0416 9.59005 11.1485 9.19117C11.4375 8.11276 12.2798 7.27042 13.3582 6.98146C13.7571 6.87458 14.2222 6.87473 14.9039 6.87496Z" fill="#92D7C1"/>
</svg>
