<svg width="30" height="30" viewBox="0 0 30 30" fill="none" xmlns="http://www.w3.org/2000/svg">
<rect width="30" height="30" rx="8" fill="#F8ECE2"/>
<path d="M15.0001 6.04166C10.0525 6.04166 6.04175 10.0524 6.04175 15C6.04175 19.9475 10.0525 23.9583 15.0001 23.9583C19.9476 23.9583 23.9584 19.9475 23.9584 15C23.9584 10.0524 19.9476 6.04166 15.0001 6.04166Z" fill="#F5A163"/>
<path d="M15.625 10C15.625 9.65482 15.3452 9.375 15 9.375C14.6548 9.375 14.375 9.65482 14.375 10V15C14.375 15.0847 14.3919 15.1655 14.4224 15.2392C14.4529 15.313 14.4981 15.382 14.5581 15.4419L17.0581 17.9419C17.3021 18.186 17.6979 18.186 17.9419 17.9419C18.186 17.6979 18.186 17.3021 17.9419 17.0581L15.625 14.7411V10Z" fill="#F8ECE2"/>
</svg>
