<svg width="30" height="30" viewBox="0 0 30 30" fill="none" xmlns="http://www.w3.org/2000/svg">
<g clip-path="url(#clip0_2572_3224)">
<rect width="30" height="30" rx="8" fill="#E2DDDD"/>
<path fill-rule="evenodd" clip-rule="evenodd" d="M23.75 15C23.75 19.8325 19.8325 23.75 15 23.75C10.1675 23.75 6.25 19.8325 6.25 15C6.25 10.1675 10.1675 6.25 15 6.25C17.3206 6.25 19.5462 7.17187 21.1872 8.81282C22.8281 10.4538 23.75 12.6794 23.75 15Z" fill="#8C8282"/>
<path d="M18.75 18.75C18.5234 18.1596 18.152 17.6357 17.67 17.2263C16.1372 15.9396 13.9064 15.9234 12.355 17.1875C11.8664 17.5897 11.4864 18.108 11.25 18.695" stroke="#E2DDDD" stroke-width="2" stroke-linecap="round" stroke-linejoin="round"/>
<path d="M11.25 12.5V11.25" stroke="#E2DDDD" stroke-width="2" stroke-linecap="round"/>
<path d="M18.75 12.5V11.25" stroke="#E2DDDD" stroke-width="2" stroke-linecap="round"/>
</g>
<defs>
<clipPath id="clip0_2572_3224">
<rect width="30" height="30" rx="8" fill="white"/>
</clipPath>
</defs>
</svg>
