<svg width="64" height="64" viewBox="0 0 64 64" fill="none" xmlns="http://www.w3.org/2000/svg">
<path d="M9.65334 22.64C14.9067 -0.453348 49.12 -0.426682 54.3467 22.6667C57.4133 36.2133 45.9867 47.68 38.6 54.7733C33.24 59.9467 30.76 59.9467 25.3733 54.7733C18.0133 47.68 6.58667 36.1867 9.65334 22.64Z" fill="#FFD066"/>
<path d="M39.3853 21.9485L31.8466 17.445C31.6327 17.3172 31.3653 17.3172 31.1514 17.445L23.6139 21.9485C23.4081 22.0717 23.2838 22.2926 23.2838 22.5309V33.986H39.7154V22.5309C39.7154 22.2926 39.5899 22.0717 39.3853 21.9485ZM29.5983 33.6884H26.7666V25.9102H29.5983V33.6884ZM36.2315 33.6884H33.4008V25.9102H36.2315V33.6884Z" fill="#B3C7AA"/>
<path d="M39.5318 21.6927L31.9943 17.1893C31.6851 17.0045 31.3015 17.0045 30.9922 17.1893L23.4547 21.6927C23.1618 21.8683 22.9793 22.1891 22.9793 22.5309V34.2847H40.0084V22.5309C40.0084 22.1891 39.8259 21.8683 39.5318 21.6927ZM23.5756 22.5309C23.5756 22.3984 23.6465 22.2728 23.7604 22.2042L31.298 17.7008C31.4177 17.6287 31.5677 17.6287 31.6874 17.7008L39.2249 22.2042C39.3389 22.2728 39.4098 22.3972 39.4098 22.5309V33.6872H36.8209V25.3127H26.1633V33.6872H23.5745V22.5309H23.5756ZM36.2257 33.6884H33.3951V25.9102H36.2257V33.6884ZM29.5926 33.6884H26.7608V25.9102H29.5926V33.6884Z" fill="#32691A"/>
<path d="M36.2277 25.9102H33.397V33.6884H36.2277V25.9102Z" fill="#7A9D6A"/>
<path d="M29.5954 25.9102H26.7636V33.6884H29.5954V25.9102Z" fill="#7A9D6A"/>
<path d="M36.2358 23.3028C35.8289 22.7332 34.9256 22.8192 33.9108 23.2586C33.0436 22.1333 31.3603 20.9453 30.4803 21.7916C29.6457 22.5937 30.0549 24.5966 30.5175 25.7661C29.7468 26.6472 29.3411 27.5261 29.7259 28.069C30.9186 29.7499 37.6389 25.2674 36.2358 23.3028ZM35.9789 24.5118C35.2953 26.009 32.4903 27.9713 30.8035 28.1317C30.3885 28.1713 30.1083 28.0922 29.97 27.8969C29.7119 27.5342 30.0014 26.8111 30.743 25.9637L30.8628 25.8265L30.8558 25.8103C31.7718 24.599 33.2703 23.8619 33.8155 23.6225L33.8178 23.6248L34.0305 23.5318C34.4909 23.3318 35.6022 22.9273 35.994 23.476C36.1776 23.7352 36.173 24.084 35.9789 24.5118Z" fill="#F9A262"/>
<path d="M36.4801 23.1296C36.0453 22.5216 35.1711 22.4414 34.0052 22.8983C33.3356 22.102 32.2719 21.2801 31.3477 21.2115C30.9269 21.1801 30.5561 21.3068 30.2759 21.5765C29.332 22.4844 29.7447 24.5234 30.1783 25.7068C29.3087 26.7496 29.0623 27.6458 29.4854 28.241C29.6517 28.4747 29.9795 28.7362 30.6165 28.7362C30.6932 28.7362 30.7758 28.7316 30.8618 28.7235C31.7337 28.6409 32.9368 28.1201 34.0796 27.3296C35.2595 26.5136 36.1499 25.5766 36.5243 24.7571C36.8835 23.9666 36.6986 23.4353 36.4801 23.1296ZM30.8037 28.1306C30.3887 28.1701 30.1085 28.0911 29.9702 27.8958C29.7121 27.5331 30.0016 26.81 30.7432 25.9626L30.863 25.8254L30.8572 25.8091C31.7732 24.5978 33.2716 23.8608 33.8168 23.6213L33.8192 23.6237L34.0319 23.5306C34.4922 23.3307 35.6036 22.9273 35.9953 23.4749C36.1802 23.7341 36.1755 24.0828 35.9814 24.5106C35.2967 26.0091 32.4916 27.9702 30.8037 28.1306ZM31.3024 21.8067C31.9778 21.8567 32.8276 22.4763 33.4274 23.1435C32.802 23.4342 31.5372 24.1073 30.62 25.1558C30.2782 24.0608 30.0783 22.5937 30.6886 22.0066C30.8304 21.8706 31.006 21.8032 31.2199 21.8032C31.2466 21.8032 31.2745 21.8044 31.3024 21.8067Z" fill="#32691A"/>
<path d="M35.9782 24.5118C35.2946 26.0091 32.4896 27.9713 30.8028 28.1317C30.3878 28.1713 30.1077 28.0922 29.9693 27.8969C29.7112 27.5342 30.0007 26.8112 30.7424 25.9637L30.8621 25.8265L30.8551 25.8103C31.7711 24.599 33.2696 23.8619 33.8148 23.6225L33.8171 23.6248L34.0299 23.5318C34.4902 23.3319 35.6015 22.9273 35.9933 23.476C36.1769 23.7352 36.1723 24.084 35.9782 24.5118Z" fill="#9C5A40"/>
<path d="M35.0543 24.5862C41.7967 24.5862 44.7191 41.3573 31.2623 41.3573C18.9376 41.3573 19.6619 28.2736 31.0914 31.3809C31.0914 31.3809 29.4186 24.5862 35.0543 24.5862Z" fill="#FFD066"/>
<path d="M40.2474 33.5675C38.5432 30.7461 28.7969 38.7533 32.7842 40.5656C36.7716 42.3767 41.3924 35.4635 40.2474 33.5675Z" fill="#F9A262"/>
<path d="M41.9855 29.0873C41.9472 28.9641 41.9111 28.8467 40.4348 28.1387C41.6798 26.7275 41.6577 26.6089 41.6298 26.4613C41.6135 26.3741 41.5612 26.2962 41.4833 26.252C41.3392 26.1706 41.2299 26.2055 40.8986 26.3462C40.6871 26.4357 40.4348 26.5543 40.1895 26.6786C39.9698 26.7891 39.7152 26.9262 39.4641 27.0762C39.4351 27.0309 39.406 26.9855 39.3758 26.9402C38.2377 25.2302 36.7021 24.2874 35.049 24.2874C33.4959 24.2874 32.3207 24.7826 31.5546 25.7603C30.2677 27.4029 30.5211 29.9254 30.7002 30.9728C28.9948 30.5625 27.4534 30.4939 26.1119 30.7671C24.7971 31.0356 23.7148 31.639 22.9801 32.5097C22.4268 33.1665 22.0839 33.9627 21.9897 34.8137C21.8967 35.6576 22.049 36.5388 22.4314 37.3607C23.0034 38.5917 24.0473 39.6357 25.4492 40.382C26.4838 40.9318 27.6754 41.3061 29.0076 41.4991C29.0123 42.2326 29.6423 43.4439 30.4921 44.3518H25.5074C25.3423 44.3518 25.2086 44.4855 25.2086 44.6506C25.2086 44.8157 25.3423 44.9493 25.5074 44.9493H37.4798C37.6448 44.9493 37.7785 44.8157 37.7785 44.6506C37.7785 44.4855 37.6448 44.3518 37.4798 44.3518H36.0522C35.6477 43.8648 34.9362 42.822 34.7514 42.5616C34.3701 42.0234 34.6177 41.2724 35.2431 41.0643C35.414 41.0074 35.5814 40.9469 35.7453 40.8818C36.945 40.4087 37.9692 39.7205 38.7887 38.8347C40.2325 37.2758 41.0276 35.0962 41.0276 32.698C41.0276 31.5901 40.8568 30.4753 40.5371 29.4384C40.7859 29.4767 41.0253 29.5058 41.2311 29.5186C41.3125 29.5232 41.3868 29.5267 41.4554 29.5267C41.7089 29.5267 41.8693 29.4814 41.9553 29.3349C42.0018 29.2617 42.0123 29.171 41.9855 29.0873ZM35.2954 44.353H31.3756C31.0896 44.06 30.699 43.5009 30.5084 43.287C29.9422 42.6535 30.3933 41.6537 31.2431 41.6549C31.2489 41.6549 31.2547 41.6549 31.2605 41.6549C32.0893 41.6549 32.8775 41.5921 33.6192 41.4666C33.4587 42.4175 34.4445 43.5079 35.2954 44.353ZM38.3539 38.4302C37.2926 39.5752 35.8988 40.3506 34.1911 40.7458C33.9911 40.7923 33.7877 40.8342 33.5785 40.8702C32.8566 40.9958 32.0824 41.0585 31.2582 41.0585C30.7525 41.0585 30.2619 41.0353 29.7888 40.9899C29.5656 40.969 29.3459 40.9423 29.1296 40.9109C26.1467 40.4808 23.9136 39.1276 22.9755 37.1107C22.4454 35.9704 22.4268 34.773 22.8941 33.7523C22.9697 34.1487 23.1394 34.487 23.4021 34.7625C23.8741 35.2589 24.5448 35.4344 25.0412 35.4937C24.7715 35.8634 24.4832 36.4074 24.5181 37.0119C24.553 37.6083 24.8854 38.1326 25.5085 38.5696C25.8654 38.8207 26.3385 38.9486 26.893 38.9486C27.0442 38.9486 27.2023 38.9393 27.3662 38.9196C28.0555 38.8382 28.8274 38.5871 29.5958 38.1942C30.6839 37.6385 31.6848 36.8399 32.4114 35.9483C33.253 34.9148 33.7063 33.7895 33.7214 32.6945C33.7238 32.5294 33.5924 32.3946 33.4274 32.3922C33.4262 32.3922 33.425 32.3922 33.4227 32.3922C33.26 32.3922 33.1263 32.5236 33.1239 32.6863C33.0949 34.7986 31.1942 36.7074 29.3238 37.6641C27.8928 38.3953 26.5303 38.5592 25.8515 38.0826C25.3865 37.7559 25.1389 37.3851 25.1145 36.9817C25.0668 36.1819 25.8712 35.4496 25.8782 35.4426C25.9735 35.3577 26.0038 35.2205 25.9538 35.1031C25.9038 34.9857 25.784 34.9125 25.6562 34.9229C25.6445 34.9241 24.4553 35.009 23.8334 34.3522C23.7392 34.2522 23.6614 34.1394 23.6009 34.0127C23.3301 33.442 23.5009 32.7573 23.9903 32.3585C24.9296 31.5948 26.2362 31.203 27.7963 31.203C28.7774 31.203 29.8574 31.3576 31.0106 31.6715C31.2303 31.7308 31.4325 31.5332 31.3791 31.3123C31.3709 31.2786 30.5828 27.9737 32.0277 26.13C32.6741 25.3058 33.6924 24.8873 35.0513 24.8873C36.6707 24.8873 38.0226 25.9091 38.9666 27.4052C38.8433 27.4947 38.7306 27.5854 38.6329 27.676C38.2923 27.9934 38.1784 28.2922 38.2923 28.5619C38.3702 28.7479 38.5888 28.9931 39.5873 29.2477C39.678 29.271 39.7722 29.2931 39.8687 29.314C40.236 30.3869 40.4348 31.5564 40.4348 32.7003C40.4336 34.9474 39.6954 36.9829 38.3539 38.4302Z" fill="#32691A"/>
<path d="M35.8912 27.3203C35.2205 27.3203 34.6741 27.8667 34.6741 28.5374C34.6741 29.2082 35.2205 28.3038 35.8912 28.3038C36.562 28.3038 37.1083 29.2082 37.1083 28.5374C37.1083 27.8667 36.5631 27.3203 35.8912 27.3203Z" fill="#32691A"/>
</svg>
